<svg width="40" height="90" viewBox="0 0 40 90" fill="none" xmlns="http://www.w3.org/2000/svg">
<g clip-path="url(#clip0_102_17)">
<path fill-rule="evenodd" clip-rule="evenodd" d="M18.0593 1.51142C18.5648 -0.507555 21.434 -0.507548 21.9395 1.51143L39.9382 73.3968C40.2543 74.6592 39.2996 75.8825 37.9981 75.8825H28.6264L21.9378 49.5205C21.4276 47.5096 18.5709 47.5096 18.0607 49.5205L11.3721 75.8825H2.00062C0.699186 75.8825 -0.255588 74.6592 0.0605105 73.3968L18.0593 1.51142ZM10.3469 89.9968C9.05054 89.9875 8.10378 88.7642 8.42326 87.505L11.3721 75.8825H28.6264L31.5753 87.505C31.8947 88.7642 30.948 89.9875 29.6516 89.9968H10.3469Z" fill="#EF233C"/>
</g>
<defs>
<clipPath id="clip0_102_17">
<rect width="40" height="90" fill="white"/>
</clipPath>
</defs>
</svg>
